<svg width="914" height="876" viewBox="0 0 914 876" fill="none" xmlns="http://www.w3.org/2000/svg">
<path d="M457 0C204.507 0 0 201.096 0 449.115C0 647.583 130.93 815.887 312.474 875.225C335.324 879.453 343.702 865.551 343.702 853.63C343.702 842.966 343.321 814.706 343.131 777.267C216.009 804.346 189.198 717.014 189.198 717.014C168.404 665.179 138.357 651.315 138.357 651.315C96.9602 623.474 141.556 624.045 141.556 624.045C187.446 627.169 211.553 670.32 211.553 670.32C252.302 738.99 318.529 719.147 344.654 707.683C348.767 678.623 360.535 658.856 373.598 647.621C272.105 636.385 165.434 597.766 165.434 425.692C165.434 376.674 183.143 336.607 212.467 305.186C207.326 293.836 191.902 248.171 216.466 186.319C216.466 186.319 254.739 174.283 342.141 232.365C378.701 222.386 417.546 217.435 456.391 217.207C495.236 217.435 534.081 222.386 570.641 232.365C657.471 174.283 695.744 186.319 695.744 186.319C720.308 248.171 704.884 293.836 700.314 305.186C729.448 336.607 747.157 376.674 747.157 425.692C747.157 598.223 640.333 636.195 538.651 647.24C554.646 660.723 569.498 688.259 569.498 730.345C569.498 790.445 568.927 838.738 568.927 853.326C568.927 865.094 576.924 879.148 600.346 874.654C783.184 815.696 914 647.278 914 449.115C914 201.096 709.378 0 457 0Z" fill="#EAEAEA"/>
</svg>
