<svg width="232" height="36" viewBox="0 0 232 36" fill="none" xmlns="http://www.w3.org/2000/svg">
<path d="M18 19.9799C19.098 19.9799 19.9801 19.0889 19.9801 17.9999C19.9801 16.9109 19.0981 16.0199 18 16.0199C16.911 16.0199 16.02 16.9109 16.02 17.9999C16.02 19.0889 16.9111 19.9799 18 19.9799Z" fill="#24292E"/>
<path d="M18 0C8.05502 0 0 8.05502 0 18C0 27.9359 8.05502 35.9999 18 35.9999C27.9449 35.9999 35.9999 27.9359 35.9999 18C36 8.05502 27.945 0 18 0ZM21.942 21.942L7.19997 28.7999L14.058 14.058L28.7999 7.19997L21.942 21.942Z" fill="#24292E"/>
<path d="M63.4 26.12C63.4 27.1867 62.9533 27.9733 62.06 28.48C61.1667 28.9867 59.8067 29.24 57.98 29.24C57.0867 29.24 56.3333 29.18 55.72 29.06C55.12 28.9533 54.6267 28.7933 54.24 28.58C53.8667 28.3667 53.5933 28.1067 53.42 27.8C53.26 27.4933 53.18 27.1467 53.18 26.76C53.18 26.2 53.3333 25.76 53.64 25.44C53.96 25.1333 54.4067 24.9067 54.98 24.76V24.56C54.6333 24.4267 54.3533 24.24 54.14 24C53.94 23.76 53.84 23.4467 53.84 23.06C53.84 22.5533 54.0133 22.1733 54.36 21.92C54.7067 21.6533 55.1533 21.4533 55.7 21.32V21.22C55.0733 20.9267 54.5867 20.5133 54.24 19.98C53.8933 19.4467 53.72 18.8067 53.72 18.06C53.72 17.5133 53.82 17.02 54.02 16.58C54.22 16.1267 54.5 15.7467 54.86 15.44C55.2333 15.12 55.6733 14.8733 56.18 14.7C56.7 14.5267 57.28 14.44 57.92 14.44C58.64 14.44 59.2867 14.5533 59.86 14.78V14.44C59.86 14.04 59.9733 13.7067 60.2 13.44C60.4267 13.1733 60.7733 13.04 61.24 13.04H63.12V14.76H60.72V15.24C61.1733 15.5467 61.52 15.94 61.76 16.42C62 16.8867 62.12 17.4333 62.12 18.06C62.12 18.6067 62.02 19.1067 61.82 19.56C61.62 20 61.3333 20.38 60.96 20.7C60.6 21.0067 60.16 21.2467 59.64 21.42C59.1333 21.58 58.56 21.66 57.92 21.66C57.4667 21.66 57.04 21.62 56.64 21.54C56.4 21.6067 56.16 21.72 55.92 21.88C55.68 22.04 55.56 22.26 55.56 22.54C55.56 22.86 55.7133 23.06 56.02 23.14C56.3267 23.22 56.7067 23.26 57.16 23.26H59.48C60.8667 23.26 61.8667 23.5267 62.48 24.06C63.0933 24.58 63.4 25.2667 63.4 26.12ZM61.36 26.26C61.36 25.9133 61.22 25.6333 60.94 25.42C60.66 25.22 60.1533 25.12 59.42 25.12H55.84C55.3333 25.36 55.08 25.7467 55.08 26.28C55.08 26.6667 55.24 27 55.56 27.28C55.8933 27.56 56.44 27.7 57.2 27.7H58.82C59.6467 27.7 60.2733 27.5733 60.7 27.32C61.14 27.08 61.36 26.7267 61.36 26.26ZM57.92 20.16C58.6267 20.16 59.1467 19.9933 59.48 19.66C59.8133 19.3267 59.98 18.88 59.98 18.32V17.78C59.98 17.22 59.8133 16.7733 59.48 16.44C59.1467 16.1067 58.6267 15.94 57.92 15.94C57.2133 15.94 56.6933 16.1067 56.36 16.44C56.0267 16.7733 55.86 17.22 55.86 17.78V18.32C55.86 18.88 56.0267 19.3267 56.36 19.66C56.6933 19.9933 57.2133 20.16 57.92 20.16ZM70.6322 12.8C70.0722 12.8 69.6789 12.6867 69.4522 12.46C69.2389 12.2333 69.1322 11.9533 69.1322 11.62V11.2C69.1322 10.8667 69.2389 10.5867 69.4522 10.36C69.6789 10.1333 70.0655 10.02 70.6122 10.02C71.1722 10.02 71.5589 10.1333 71.7722 10.36C71.9989 10.5867 72.1122 10.8667 72.1122 11.2V11.62C72.1122 11.9533 71.9989 12.2333 71.7722 12.46C71.5589 12.6867 71.1789 12.8 70.6322 12.8ZM66.0122 23.24H69.5322V16.44H66.0122V14.68H71.7122V23.24H75.0122V25H66.0122V23.24ZM82.6044 25C81.6977 25 81.031 24.76 80.6044 24.28C80.1777 23.7867 79.9644 23.1533 79.9644 22.38V16.44H76.7844V14.68H79.0444C79.431 14.68 79.7044 14.6067 79.8644 14.46C80.0244 14.3 80.1044 14.02 80.1044 13.62V11.04H82.1444V14.68H86.5444V16.44H82.1444V23.24H86.5444V25H82.6044ZM89.6566 10.2H91.8366V16.44H91.9366C92.0432 16.1733 92.1766 15.92 92.3366 15.68C92.5099 15.4267 92.7166 15.2133 92.9566 15.04C93.1966 14.8533 93.4766 14.7067 93.7966 14.6C94.1166 14.4933 94.4899 14.44 94.9166 14.44C95.9566 14.44 96.7966 14.78 97.4366 15.46C98.0766 16.14 98.3966 17.1067 98.3966 18.36V25H96.2166V18.68C96.2166 17.04 95.5032 16.22 94.0766 16.22C93.7966 16.22 93.5232 16.26 93.2566 16.34C92.9899 16.4067 92.7499 16.5133 92.5366 16.66C92.3232 16.8067 92.1499 16.9933 92.0166 17.22C91.8966 17.4467 91.8366 17.7067 91.8366 18V25H89.6566V10.2ZM108.109 23.24H108.009C107.902 23.5067 107.762 23.7667 107.589 24.02C107.429 24.26 107.229 24.4733 106.989 24.66C106.749 24.8333 106.469 24.9733 106.149 25.08C105.829 25.1867 105.455 25.24 105.029 25.24C103.989 25.24 103.149 24.9 102.509 24.22C101.869 23.54 101.549 22.5733 101.549 21.32V14.68H103.729V21C103.729 22.64 104.442 23.46 105.869 23.46C106.149 23.46 106.422 23.4267 106.689 23.36C106.955 23.28 107.195 23.1667 107.409 23.02C107.622 22.8733 107.789 22.6933 107.909 22.48C108.042 22.2533 108.109 21.9867 108.109 21.68V14.68H110.289V25H108.109V23.24ZM113.541 10.2H115.721V16.44H115.841C116.148 15.8133 116.554 15.3267 117.061 14.98C117.568 14.62 118.201 14.44 118.961 14.44C120.174 14.44 121.141 14.8933 121.861 15.8C122.581 16.7067 122.941 18.0533 122.941 19.84C122.941 21.6267 122.581 22.9733 121.861 23.88C121.141 24.7867 120.174 25.24 118.961 25.24C118.201 25.24 117.568 25.0667 117.061 24.72C116.554 24.36 116.148 23.8667 115.841 23.24H115.721V25H113.541V10.2ZM118.061 23.46C118.888 23.46 119.521 23.2067 119.961 22.7C120.414 22.1933 120.641 21.52 120.641 20.68V19C120.641 18.16 120.414 17.4867 119.961 16.98C119.521 16.4733 118.888 16.22 118.061 16.22C117.741 16.22 117.441 16.26 117.161 16.34C116.881 16.42 116.634 16.54 116.421 16.7C116.208 16.86 116.034 17.06 115.901 17.3C115.781 17.5267 115.721 17.8 115.721 18.12V21.56C115.721 21.88 115.781 22.16 115.901 22.4C116.034 22.6267 116.208 22.82 116.421 22.98C116.634 23.14 116.881 23.26 117.161 23.34C117.441 23.42 117.741 23.46 118.061 23.46Z" fill="#24292E"/>
<path d="M126.933 20V17.82H132.973V20H126.933ZM142.165 25.24C141.379 25.24 140.672 25.1133 140.045 24.86C139.419 24.6067 138.892 24.2467 138.465 23.78C138.039 23.3133 137.712 22.7533 137.485 22.1C137.259 21.4333 137.145 20.6867 137.145 19.86C137.145 19.0333 137.259 18.2867 137.485 17.62C137.725 16.9533 138.052 16.3867 138.465 15.92C138.892 15.44 139.405 15.0733 140.005 14.82C140.605 14.5667 141.272 14.44 142.005 14.44C142.725 14.44 143.379 14.5667 143.965 14.82C144.552 15.06 145.052 15.4067 145.465 15.86C145.879 16.3133 146.192 16.8533 146.405 17.48C146.632 18.1067 146.745 18.8 146.745 19.56V20.38H139.345V20.72C139.345 21.5333 139.599 22.2 140.105 22.72C140.612 23.2267 141.312 23.48 142.205 23.48C142.872 23.48 143.439 23.34 143.905 23.06C144.385 22.7667 144.772 22.38 145.065 21.9L146.425 23.1C146.079 23.7 145.545 24.2067 144.825 24.62C144.119 25.0333 143.232 25.24 142.165 25.24ZM142.005 16.1C141.619 16.1 141.259 16.1667 140.925 16.3C140.605 16.4333 140.325 16.6267 140.085 16.88C139.859 17.12 139.679 17.4067 139.545 17.74C139.412 18.0733 139.345 18.44 139.345 18.84V18.98H144.525V18.78C144.525 17.9667 144.292 17.32 143.825 16.84C143.372 16.3467 142.765 16.1 142.005 16.1ZM148.838 25L152.678 19.76L148.998 14.68H151.538L152.898 16.64L153.978 18.2H154.098L155.158 16.64L156.518 14.68H158.878L155.178 19.68L159.058 25H156.498L154.958 22.78L153.898 21.26H153.778L152.738 22.78L151.218 25H148.838ZM161.51 14.68H163.69V16.44H163.81C164.116 15.8133 164.523 15.3267 165.03 14.98C165.536 14.62 166.17 14.44 166.93 14.44C168.143 14.44 169.11 14.8933 169.83 15.8C170.55 16.7067 170.91 18.0533 170.91 19.84C170.91 21.6267 170.55 22.9733 169.83 23.88C169.11 24.7867 168.143 25.24 166.93 25.24C166.17 25.24 165.536 25.0667 165.03 24.72C164.523 24.36 164.116 23.8667 163.81 23.24H163.69V29H161.51V14.68ZM166.03 23.46C166.856 23.46 167.49 23.2067 167.93 22.7C168.383 22.1933 168.61 21.52 168.61 20.68V19C168.61 18.16 168.383 17.4867 167.93 16.98C167.49 16.4733 166.856 16.22 166.03 16.22C165.71 16.22 165.41 16.26 165.13 16.34C164.85 16.42 164.603 16.54 164.39 16.7C164.176 16.86 164.003 17.06 163.87 17.3C163.75 17.5267 163.69 17.8 163.69 18.12V21.56C163.69 21.88 163.75 22.16 163.87 22.4C164.003 22.6267 164.176 22.82 164.39 22.98C164.603 23.14 164.85 23.26 165.13 23.34C165.41 23.42 165.71 23.46 166.03 23.46ZM173.422 23.24H176.842V11.96H173.422V10.2H179.022V23.24H182.442V25H173.422V23.24ZM189.914 25.24C189.154 25.24 188.467 25.1133 187.854 24.86C187.254 24.6067 186.741 24.2467 186.314 23.78C185.901 23.3133 185.581 22.7467 185.354 22.08C185.127 21.4133 185.014 20.6667 185.014 19.84C185.014 19.0133 185.127 18.2667 185.354 17.6C185.581 16.9333 185.901 16.3667 186.314 15.9C186.741 15.4333 187.254 15.0733 187.854 14.82C188.467 14.5667 189.154 14.44 189.914 14.44C190.674 14.44 191.354 14.5667 191.954 14.82C192.567 15.0733 193.081 15.4333 193.494 15.9C193.921 16.3667 194.247 16.9333 194.474 17.6C194.701 18.2667 194.814 19.0133 194.814 19.84C194.814 20.6667 194.701 21.4133 194.474 22.08C194.247 22.7467 193.921 23.3133 193.494 23.78C193.081 24.2467 192.567 24.6067 191.954 24.86C191.354 25.1133 190.674 25.24 189.914 25.24ZM189.914 23.52C190.714 23.52 191.347 23.28 191.814 22.8C192.294 22.3067 192.534 21.58 192.534 20.62V19.06C192.534 18.1 192.294 17.38 191.814 16.9C191.347 16.4067 190.714 16.16 189.914 16.16C189.114 16.16 188.474 16.4067 187.994 16.9C187.527 17.38 187.294 18.1 187.294 19.06V20.62C187.294 21.58 187.527 22.3067 187.994 22.8C188.474 23.28 189.114 23.52 189.914 23.52ZM197.426 23.24H200.166V16.44H197.426V14.68H202.346V17.42H202.466C202.56 17.06 202.693 16.7133 202.866 16.38C203.04 16.0467 203.26 15.76 203.526 15.52C203.793 15.2667 204.12 15.0667 204.506 14.92C204.893 14.76 205.346 14.68 205.866 14.68H207.106V16.76H205.066C204.266 16.76 203.613 17 203.106 17.48C202.6 17.9467 202.346 18.58 202.346 19.38V23.24H206.086V25H197.426V23.24ZM214.118 25.24C213.332 25.24 212.625 25.1133 211.998 24.86C211.372 24.6067 210.845 24.2467 210.418 23.78C209.992 23.3133 209.665 22.7533 209.438 22.1C209.212 21.4333 209.098 20.6867 209.098 19.86C209.098 19.0333 209.212 18.2867 209.438 17.62C209.678 16.9533 210.005 16.3867 210.418 15.92C210.845 15.44 211.358 15.0733 211.958 14.82C212.558 14.5667 213.225 14.44 213.958 14.44C214.678 14.44 215.332 14.5667 215.918 14.82C216.505 15.06 217.005 15.4067 217.418 15.86C217.832 16.3133 218.145 16.8533 218.358 17.48C218.585 18.1067 218.698 18.8 218.698 19.56V20.38H211.298V20.72C211.298 21.5333 211.552 22.2 212.058 22.72C212.565 23.2267 213.265 23.48 214.158 23.48C214.825 23.48 215.392 23.34 215.858 23.06C216.338 22.7667 216.725 22.38 217.018 21.9L218.378 23.1C218.032 23.7 217.498 24.2067 216.778 24.62C216.072 25.0333 215.185 25.24 214.118 25.24ZM213.958 16.1C213.572 16.1 213.212 16.1667 212.878 16.3C212.558 16.4333 212.278 16.6267 212.038 16.88C211.812 17.12 211.632 17.4067 211.498 17.74C211.365 18.0733 211.298 18.44 211.298 18.84V18.98H216.478V18.78C216.478 17.9667 216.245 17.32 215.778 16.84C215.325 16.3467 214.718 16.1 213.958 16.1ZM221.411 23.24H224.151V16.44H221.411V14.68H226.331V17.42H226.451C226.544 17.06 226.677 16.7133 226.851 16.38C227.024 16.0467 227.244 15.76 227.511 15.52C227.777 15.2667 228.104 15.0667 228.491 14.92C228.877 14.76 229.331 14.68 229.851 14.68H231.091V16.76H229.051C228.251 16.76 227.597 17 227.091 17.48C226.584 17.9467 226.331 18.58 226.331 19.38V23.24H230.071V25H221.411V23.24Z" fill="#959DA5"/>
</svg>
